Coordinates
version=1
nRows=10
nColumns=33
inDegrees=yes

Units are S.I. units (second, meters, Newtons, ...)
Angles are in degrees.

endheader
time	ground_thorax_rot_x	ground_thorax_rot_y	ground_thorax_rot_z	ground_thorax_tx	ground_thorax_ty	ground_thorax_tz	clav_prot_r	clav_elev_r	scapula_abduction_r	scapula_elevation_r	scapula_upward_rot_r	scapula_winging_r	shoulder_elv_r	plane_of_elev_r	axial_rot_r	elbow_flexion_r	pro_sup_r	wrist_flex_r	wrist_dev_r	clav_prot_l	clav_elev_l	scapula_abduction_l	scapula_elevation_l	scapula_upward_rot_l	scapula_winging_l	shoulder_elv_l	plane_of_elev_l	axial_rot_l	elbow_flexion_l	pro_sup_l	wrist_flex_l	wrist_dev_l
     10.71000000	    -30.48290930	    -26.11400562	     36.12783409	    -34.23264995	    792.97053939	    -39.22262491	     27.69991710	    -45.00000000	     38.58776680	    -45.00000000	    -45.00000000	  -4064.61611705	  -2624.65983855	    160.34918616	     40.81903730	    720.38764937	    169.50157434	     13.04186679	     14.73260458	     -1.13839826	     31.41207840	    -28.85093540	    -45.00000000	    -45.00000000	  -3875.32196920	  -1003.98120656	     26.11616964	     46.10003538	   1429.05439880	     39.50543501	     13.71091857	    -16.22834392
     10.72000000	    -30.41826918	    -26.10304922	     36.08606337	    -36.45535483	    794.67886290	    -39.18201201	     27.65671269	    -45.00000000	     38.71815549	    -45.00000000	    -45.00000000	  -4064.73341991	  -2624.43167313	    160.50562887	     40.50379938	    720.32992451	    168.85565691	     12.99806308	     14.73648618	     -1.14629503	     31.48823390	    -28.74793152	    -45.00000000	    -45.00000000	  -3875.54029192	  -1003.78399617	     25.92260027	     46.08829778	   1429.04611061	     39.24829599	     13.66602390	    -16.14540428
     10.73000000	    -30.62672452	    -25.94628704	     35.65646163	    -38.59972180	    796.39236241	    -39.14655971	     27.65770019	    -45.00000000	     38.70477590	    -45.00000000	    -45.00000000	  -4064.78743761	  -2624.35953842	    160.45497346	     40.24590713	    720.24856640	    168.22430943	     12.98309929	     14.78121516	     -1.12812603	     31.55312691	    -28.87297545	    -45.00000000	    -45.00000000	  -3875.40213192	  -1003.78322538	     25.97098231	     46.23053930	   1429.02747635	     38.97974156	     13.71983962	    -16.15032262
     10.74000000	    -30.84101362	    -25.80500225	     35.27006886	    -40.67034851	    798.11441945	    -39.12026508	     27.60227252	    -45.00000000	     38.66085238	    -45.00000000	    -45.00000000	  -4064.88205789	  -2624.30814766	    160.38978108	     39.97577241	    720.20789089	    167.64254820	     12.96621436	     14.82438553	     -1.13172489	     31.59061757	    -28.98524146	    -45.00000000	    -45.00000000	  -3875.27729773	  -1003.69602492	     26.02556309	     46.45359977	   1429.03245006	     38.69834757	     13.78182956	    -16.16994157
     10.75000000	    -31.17443845	    -25.65300159	     34.73627167	    -42.67017236	    799.84747157	    -39.10751100	     27.59653500	    -45.00000000	     38.51669288	    -45.00000000	    -45.00000000	  -4064.91071364	  -2624.36980664	    160.18483550	     39.75264962	    720.34928576	    167.12584774	     12.91636775	     14.85900677	     -1.13352761	     31.57159618	    -29.18843239	    -45.00000000	    -45.00000000	  -3874.96069235	  -1003.66115185	     26.21169480	     46.76503014	   1429.04378221	     38.42246400	     13.91234957	    -16.25977232
     10.76000000	    -31.32988416	    -25.52294709	     34.36713619	    -44.60418372	    801.59438470	    -39.11454098	     27.50845453	    -45.00000000	     38.61202606	    -45.00000000	    -45.00000000	  -4065.05043196	  -2624.32441731	    160.16352526	     39.56097794	    720.14731596	    166.62781680	     12.93837955	     14.96049037	     -1.12857943	     31.65121739	    -29.26504739	    -45.00000000	    -45.00000000	  -3874.85679535	  -1003.58189998	     26.22984706	     47.00094201	   1429.05693594	     38.13622366	     14.00867798	    -16.32244444
     10.77000000	    -31.48172141	    -25.38051368	     33.99196959	    -46.47745687	    803.35807251	    -39.14304267	     27.47776198	    -45.00000000	     38.65895898	    -45.00000000	    -45.00000000	  -4065.10575332	  -2624.28113461	    160.10928982	     39.23177297	    720.13716470	    166.10277585	     12.93467901	     14.99655865	     -1.12660274	     31.65700346	    -29.38024671	    -45.00000000	    -45.00000000	  -3874.77159820	  -1003.54812843	     26.27890468	     47.17933572	   1429.06459653	     37.85767438	     14.04049502	    -16.33605423
     10.78000000	    -31.52729373	    -25.33183347	     33.82924102	    -48.28926198	    805.13484796	    -39.19538611	     27.42246680	    -45.00000000	     38.68450794	    -45.00000000	    -45.00000000	  -4065.19142486	  -2624.10859674	    160.17305079	     38.96329542	    720.01972687	    165.54568563	     12.94209201	     15.01168259	     -1.11407460	     31.75040808	    -29.35887316	    -45.00000000	    -45.00000000	  -3874.86709447	  -1003.43402056	     26.19550556	     47.27354735	   1429.04890227	     37.57690807	     14.05061669	    -16.31194398
     10.79000000	    -31.77537980	    -25.18314294	     33.42129991	    -50.03098225	    806.91361246	    -39.26802899	     27.41241231	    -45.00000000	     38.60056131	    -45.00000000	    -45.00000000	  -4065.23020311	  -2624.11117838	    160.06514830	     38.70847143	    720.01957054	    165.00898605	     12.95819910	     15.03982484	     -1.09330162	     31.78162853	    -29.52350300	    -45.00000000	    -45.00000000	  -3874.64386149	  -1003.39870392	     26.33482335	     47.49931753	   1429.07753889	     37.33370532	     14.12389680	    -16.38752337
     10.80000000	    -31.90317001	    -25.06213604	     33.08640585	    -51.70116579	    808.68936393	    -39.35698481	     27.33646029	    -45.00000000	     38.60951431	    -45.00000000	    -45.00000000	  -4065.33591786	  -2624.05381866	    160.01735601	     38.44404199	    719.88963964	    164.47930572	     12.97875805	     15.09048664	     -1.07843185	     31.81073169	    -29.61884139	    -45.00000000	    -45.00000000	  -3874.55149770	  -1003.32788820	     26.35913322	     47.75171565	   1429.06078072	     37.11762068	     14.20944394	    -16.45264793
